HIERARCHY
ROOT Hips
{
    OFFSET 0.000000 97.120003 0.000000
    CHANNELS 6 Xposition Yposition Zposition Yrotation Xrotation Zrotation
    JOINT RightUpLeg
    {
        OFFSET -11.000000 -0.000000 0.000000
        CHANNELS 3 Yrotation Xrotation Zrotation
        JOINT RightLeg
        {
            OFFSET 0.000000 -45.062000 0.000000
            CHANNELS 3 Yrotation Xrotation Zrotation
            JOINT RightFoot
            {
                OFFSET 0.000000 -42.057999 0.000000
                CHANNELS 3 Yrotation Xrotation Zrotation
                End Site
                {
                    OFFSET 0.000000 -10.000000 15.120000
                }
            }
        }
    }
    JOINT LeftUpLeg
    {
        OFFSET 11.000000 -0.000000 0.000000
        CHANNELS 3 Yrotation Xrotation Zrotation
        JOINT LeftLeg
        {
            OFFSET 0.000000 -45.062000 0.000000
            CHANNELS 3 Yrotation Xrotation Zrotation
            JOINT LeftFoot
            {
                OFFSET 0.000000 -42.057999 0.000000
                CHANNELS 3 Yrotation Xrotation Zrotation
                End Site
                {
                    OFFSET 0.000000 -10.000000 15.120000
                }
            }
        }
    }
    JOINT Spine
    {
        OFFSET 0.000000 8.120000 0.000000
        CHANNELS 3 Yrotation Xrotation Zrotation
        JOINT Spine1
        {
            OFFSET 0.000000 17.980000 0.000000
            CHANNELS 3 Yrotation Xrotation Zrotation
            JOINT Spine2
            {
                OFFSET 0.000000 12.760000 0.000000
                CHANNELS 3 Yrotation Xrotation Zrotation
                JOINT Neck
                {
                    OFFSET 0.000000 19.139999 0.000000
                    CHANNELS 3 Yrotation Xrotation Zrotation
                    JOINT Neck1
                    {
                        OFFSET 0.000000 4.250000 0.000000
                        CHANNELS 3 Yrotation Xrotation Zrotation
                        JOINT Head
                        {
                            OFFSET 0.000000 4.250000 0.000000
                            CHANNELS 3 Yrotation Xrotation Zrotation
                            End Site
                            {
                                OFFSET 0.000000 19.120001 0.000000
                            }
                        }
                    }
                }
                JOINT RightShoulder
                {
                    OFFSET -2.900000 13.340000 0.000000
                    CHANNELS 3 Yrotation Xrotation Zrotation
                    JOINT RightArm
                    {
                        OFFSET -16.100000 0.000000 0.000000
                        CHANNELS 3 Yrotation Xrotation Zrotation
                        JOINT RightForeArm
                        {
                            OFFSET -28.000000 0.000000 0.000000
                            CHANNELS 3 Yrotation Xrotation Zrotation
                            JOINT RightHand
                            {
                                OFFSET -26.000000 0.000000 0.000000
                                CHANNELS 3 Yrotation Xrotation Zrotation
                                JOINT RightHandThumb1
                                {
                                    OFFSET -1.937000 -0.484000 2.518000
                                    CHANNELS 3 Yrotation Xrotation Zrotation
                                    JOINT RightHandThumb2
                                    {
                                        OFFSET -3.872000 0.000000 0.000000
                                        CHANNELS 3 Yrotation Xrotation Zrotation
                                        JOINT RightHandThumb3
                                        {
                                            OFFSET -2.690000 0.000000 0.000000
                                            CHANNELS 3 Yrotation Xrotation Zrotation
                                            End Site
                                            {
                                                OFFSET -2.537000 0.000000 0.000000
                                            }
                                        }
                                    }
                                }
                                JOINT RightInHandIndex
                                {
                                    OFFSET -3.389000 0.535000 2.080000
                                    CHANNELS 3 Yrotation Xrotation Zrotation
                                    JOINT RightHandIndex1
                                    {
                                        OFFSET -5.485000 -0.096000 1.051000
                                        CHANNELS 3 Yrotation Xrotation Zrotation
                                        JOINT RightHandIndex2
                                        {
                                            OFFSET -3.806000 0.000000 0.000000
                                            CHANNELS 3 Yrotation Xrotation Zrotation
                                            JOINT RightHandIndex3
                                            {
                                                OFFSET -2.158000 0.000000 0.000000
                                                CHANNELS 3 Yrotation Xrotation Zrotation
                                                End Site
                                                {
                                                    OFFSET -1.898000 0.000000 0.000000
                                                }
                                            }
                                        }
                                    }
                                }
                                JOINT RightInHandMiddle
                                {
                                    OFFSET -3.556000 0.544000 0.796000
                                    CHANNELS 3 Yrotation Xrotation Zrotation
                                    JOINT RightHandMiddle1
                                    {
                                        OFFSET -5.441000 -0.088000 0.330000
                                        CHANNELS 3 Yrotation Xrotation Zrotation
                                        JOINT RightHandMiddle2
                                        {
                                            OFFSET -4.153000 0.000000 0.000000
                                            CHANNELS 3 Yrotation Xrotation Zrotation
                                            JOINT RightHandMiddle3
                                            {
                                                OFFSET -2.603000 0.000000 0.000000
                                                CHANNELS 3 Yrotation Xrotation Zrotation
                                                End Site
                                                {
                                                    OFFSET -2.076000 0.000000 0.000000
                                                }
                                            }
                                        }
                                    }
                                }
                                JOINT RightInHandRing
                                {
                                    OFFSET -3.539000 0.566000 -0.136000
                                    CHANNELS 3 Yrotation Xrotation Zrotation
                                    JOINT RightHandRing1
                                    {
                                        OFFSET -4.873000 -0.023000 -0.504000
                                        CHANNELS 3 Yrotation Xrotation Zrotation
                                        JOINT RightHandRing2
                                        {
                                            OFFSET -3.619000 0.000000 0.000000
                                            CHANNELS 3 Yrotation Xrotation Zrotation
                                            JOINT RightHandRing3
                                            {
                                                OFFSET -2.511000 0.000000 0.000000
                                                CHANNELS 3 Yrotation Xrotation Zrotation
                                                End Site
                                                {
                                                    OFFSET -1.952000 0.000000 0.000000
                                                }
                                            }
                                        }
                                    }
                                }
                                JOINT RightInHandPinky
                                {
                                    OFFSET -3.324000 0.494000 -1.264000
                                    CHANNELS 3 Yrotation Xrotation Zrotation
                                    JOINT RightHandPinky1
                                    {
                                        OFFSET -4.354000 -0.023000 -1.147000
                                        CHANNELS 3 Yrotation Xrotation Zrotation
                                        JOINT RightHandPinky2
                                        {
                                            OFFSET -2.898000 0.000000 0.000000
                                            CHANNELS 3 Yrotation Xrotation Zrotation
                                            JOINT RightHandPinky3
                                            {
                                                OFFSET -1.831000 0.000000 0.000000
                                                CHANNELS 3 Yrotation Xrotation Zrotation
                                                End Site
                                                {
                                                    OFFSET -1.730000 0.000000 0.000000
                                                }
                                            }
                                        }
                                    }
                                }
                            }
                        }
                    }
                }
                JOINT LeftShoulder
                {
                    OFFSET 2.900000 13.340000 0.000000
                    CHANNELS 3 Yrotation Xrotation Zrotation
                    JOINT LeftArm
                    {
                        OFFSET 16.100000 0.000000 0.000000
                        CHANNELS 3 Yrotation Xrotation Zrotation
                        JOINT LeftForeArm
                        {
                            OFFSET 28.000000 0.000000 0.000000
                            CHANNELS 3 Yrotation Xrotation Zrotation
                            JOINT LeftHand
                            {
                                OFFSET 26.000000 0.000000 0.000000
                                CHANNELS 3 Yrotation Xrotation Zrotation
                                JOINT LeftHandThumb1
                                {
                                    OFFSET 1.937000 -0.484000 2.518000
                                    CHANNELS 3 Yrotation Xrotation Zrotation
                                    JOINT LeftHandThumb2
                                    {
                                        OFFSET 3.872000 0.000000 0.000000
                                        CHANNELS 3 Yrotation Xrotation Zrotation
                                        JOINT LeftHandThumb3
                                        {
                                            OFFSET 2.690000 0.000000 0.000000
                                            CHANNELS 3 Yrotation Xrotation Zrotation
                                            End Site
                                            {
                                                OFFSET 2.537000 0.000000 0.000000
                                            }
                                        }
                                    }
                                }
                                JOINT LeftInHandIndex
                                {
                                    OFFSET 3.389000 0.535000 2.080000
                                    CHANNELS 3 Yrotation Xrotation Zrotation
                                    JOINT LeftHandIndex1
                                    {
                                        OFFSET 5.485000 -0.096000 1.051000
                                        CHANNELS 3 Yrotation Xrotation Zrotation
                                        JOINT LeftHandIndex2
                                        {
                                            OFFSET 3.806000 0.000000 0.000000
                                            CHANNELS 3 Yrotation Xrotation Zrotation
                                            JOINT LeftHandIndex3
                                            {
                                                OFFSET 2.158000 0.000000 0.000000
                                                CHANNELS 3 Yrotation Xrotation Zrotation
                                                End Site
                                                {
                                                    OFFSET 1.898000 0.000000 0.000000
                                                }
                                            }
                                        }
                                    }
                                }
                                JOINT LeftInHandMiddle
                                {
                                    OFFSET 3.556000 0.544000 0.796000
                                    CHANNELS 3 Yrotation Xrotation Zrotation
                                    JOINT LeftHandMiddle1
                                    {
                                        OFFSET 5.441000 -0.088000 0.330000
                                        CHANNELS 3 Yrotation Xrotation Zrotation
                                        JOINT LeftHandMiddle2
                                        {
                                            OFFSET 4.153000 0.000000 0.000000
                                            CHANNELS 3 Yrotation Xrotation Zrotation
                                            JOINT LeftHandMiddle3
                                            {
                                                OFFSET 2.603000 0.000000 0.000000
                                                CHANNELS 3 Yrotation Xrotation Zrotation
                                                End Site
                                                {
                                                    OFFSET 2.076000 0.000000 0.000000
                                                }
                                            }
                                        }
                                    }
                                }
                                JOINT LeftInHandRing
                                {
                                    OFFSET 3.539000 0.566000 -0.136000
                                    CHANNELS 3 Yrotation Xrotation Zrotation
                                    JOINT LeftHandRing1
                                    {
                                        OFFSET 4.873000 -0.023000 -0.504000
                                        CHANNELS 3 Yrotation Xrotation Zrotation
                                        JOINT LeftHandRing2
                                        {
                                            OFFSET 3.619000 0.000000 0.000000
                                            CHANNELS 3 Yrotation Xrotation Zrotation
                                            JOINT LeftHandRing3
                                            {
                                                OFFSET 2.511000 0.000000 0.000000
                                                CHANNELS 3 Yrotation Xrotation Zrotation
                                                End Site
                                                {
                                                    OFFSET 1.952000 0.000000 0.000000
                                                }
                                            }
                                        }
                                    }
                                }
                                JOINT LeftInHandPinky
                                {
                                    OFFSET 3.324000 0.494000 -1.264000
                                    CHANNELS 3 Yrotation Xrotation Zrotation
                                    JOINT LeftHandPinky1
                                    {
                                        OFFSET 4.354000 -0.023000 -1.147000
                                        CHANNELS 3 Yrotation Xrotation Zrotation
                                        JOINT LeftHandPinky2
                                        {
                                            OFFSET 2.898000 0.000000 0.000000
                                            CHANNELS 3 Yrotation Xrotation Zrotation
                                            JOINT LeftHandPinky3
                                            {
                                                OFFSET 1.831000 0.000000 0.000000
                                                CHANNELS 3 Yrotation Xrotation Zrotation
                                                End Site
                                                {
                                                    OFFSET 1.730000 0.000000 0.000000
                                                }
                                            }
                                        }
                                    }
                                }
                            }
                        }
                    }
                }
            }
        }
    }
}
MOTION
Frames: 4
Frame Time: 0.011111
-61.646442 121.961067 13.513258 88.439217 -178.555649 -178.419067 179.425842 179.536392 179.940109 175.338257 156.359009 175.017502 4.997993 5.499755 -2.858293 0.969086 -36.075703 2.015872 170.004318 117.920937 163.072037 3.973166 -24.113810 5.314042 0.815621 6.479778 -1.899396 1.064270 6.377038 -3.036475 5.582488 5.063713 -3.381799 0.000065 0.136947 0.177425 0.000062 0.159765 0.183761 169.099686 179.863831 -179.916534 10.216652 1.152456 0.657061 18.843527 -18.827734 65.829887 28.492702 -2.978812 5.909232 177.111084 -178.347427 173.377457 44.822708 43.496868 7.710659 179.999893 179.999329 -170.805130 179.999847 179.999573 -173.876190 0.000000 -0.000000 0.000000 14.999978 -0.000131 29.790749 0.000039 -0.000096 24.374237 0.000059 -0.000047 17.061956 0.000000 -0.000000 0.000000 0.000182 0.001226 34.959614 179.999451 179.998886 -145.040359 179.999268 179.999588 -156.716858 0.000000 -0.000000 0.000000 169.999634 -179.997772 -144.614014 0.001003 -0.002046 35.385983 0.001331 -0.000726 23.567068 0.000000 -0.000000 0.000000 160.000336 179.998077 -163.566971 179.999649 179.997116 -155.350449 179.998978 179.998352 -163.583420 176.467422 -177.782578 -179.659882 178.018631 -174.936035 104.735123 176.970657 177.473755 179.677475 8.844131 6.329629 2.870271 125.894470 127.700714 163.984436 179.999908 179.999939 173.246796 179.999939 179.999954 175.502380 180.000000 -180.000000 180.000000 165.000534 -179.999146 153.176804 0.000084 -0.000829 -21.946239 179.999847 -179.999435 164.637619 180.000000 -180.000000 180.000000 0.000826 -0.001328 -34.378937 179.999939 -179.998428 145.621063 179.999374 -179.999161 157.103622 180.000000 -180.000000 180.000000 10.002056 -0.003483 -32.090340 179.999863 -179.995941 147.909653 179.998474 -179.997772 158.627853 180.000000 -180.000000 180.000000 20.001007 -0.001874 -24.171629 0.000211 -0.003186 -36.257408 179.998856 -179.998215 155.852539
-62.036877 122.528519 13.643704 88.070961 -178.541092 -178.503632 179.881134 -179.264282 -179.834885 174.129944 153.939423 174.303879 4.845132 6.749454 -2.898043 0.972880 -35.074909 2.034538 171.276138 119.032646 164.262024 3.951133 -23.890474 5.114237 0.859856 6.441743 -1.930505 1.084952 6.340874 -3.106189 5.688722 5.056730 -3.463355 0.000043 0.186630 0.162439 0.000067 0.217750 0.168218 169.081055 179.823547 -179.933624 10.196115 1.144946 0.696262 18.699657 -18.117052 66.273163 27.359705 -2.750494 5.983645 176.925400 -178.479019 173.428879 44.778503 43.309212 7.724079 179.999939 179.999664 -170.731064 179.999924 179.999786 -173.826904 0.000000 -0.000000 0.000000 15.000016 0.000152 29.774334 179.999969 179.999878 -155.639160 179.999954 179.999954 -162.947418 0.000000 -0.000000 0.000000 0.000179 0.001204 35.022804 179.999466 179.998917 -144.977203 179.999298 179.999603 -156.674820 0.000000 -0.000000 0.000000 169.999741 -179.998383 -144.749039 0.000725 -0.001495 35.250957 0.000960 -0.000533 23.477131 0.000000 -0.000000 0.000000 160.000305 179.998199 -163.466080 179.999680 179.997269 -155.199127 179.999039 179.998444 -163.482605 176.416260 -177.786362 -179.532852 177.892975 -174.044144 104.508278 177.023560 178.132996 179.696198 8.800518 6.162059 2.972099 126.155373 127.854187 164.351135 179.999924 179.999878 173.264359 179.999969 179.999924 175.514069 180.000000 179.999985 180.000000 165.000412 -179.999283 153.077850 0.000024 -0.000676 -22.027231 179.999847 -179.999557 164.580948 180.000000 179.999985 180.000000 0.000538 -0.001028 -34.539135 179.999878 -179.998856 145.460876 179.999496 -179.999435 156.996918 180.000000 179.999985 180.000000 10.000494 -0.001004 -32.632694 179.999863 -179.998871 147.367310 179.999542 -179.999435 158.266632 180.000000 179.999985 180.000000 20.000694 -0.001622 -24.385971 179.999954 -179.997360 143.421051 179.998917 -179.998611 155.638397
-62.393890 123.085320 13.757908 87.702904 -178.524719 -178.591782 0.430840 -2.018878 0.398950 172.705322 151.348038 173.399796 4.983933 7.872229 -3.098415 0.968439 -34.089130 2.073929 172.325745 120.188042 165.258163 4.006906 -23.633881 4.886654 0.899685 6.408197 -1.956225 1.101730 6.308979 -3.167431 5.775379 5.050242 -3.535827 0.000015 0.234170 0.141093 0.000041 0.273217 0.146097 169.083786 179.785797 -179.954086 10.170873 1.137694 0.718069 18.656326 -17.414064 66.715065 26.182255 -2.551659 6.016634 176.737396 -178.614105 173.498108 44.839188 43.142372 7.793981 179.999985 179.999893 -170.682678 179.999985 179.999924 -173.794662 0.000000 0.000002 0.000000 15.000031 0.000282 29.777866 179.999908 179.999786 -155.636307 179.999878 179.999893 -162.945419 0.000000 0.000002 0.000000 0.000180 0.001250 35.090939 179.999435 179.998886 -144.909088 179.999252 179.999603 -156.629440 0.000000 0.000002 0.000000 169.999832 -179.998917 -144.864105 0.000472 -0.000975 35.135899 0.000645 -0.000355 23.400494 0.000000 0.000002 0.000000 160.000320 179.998108 -163.364594 179.999649 179.997147 -155.046921 179.998978 179.998398 -163.381241 176.355591 -177.795517 -179.413208 177.764191 -173.170349 104.304794 177.016159 178.732529 179.697327 8.764272 5.974865 3.022213 126.203888 127.943893 164.494293 179.999969 179.999893 173.293488 179.999985 179.999924 175.533478 0.000000 -0.000000 0.000000 165.000244 -179.999466 152.978622 179.999985 -179.999527 157.891617 179.999847 -179.999695 164.524139 0.000000 -0.000000 0.000000 0.000317 -0.000735 -34.679947 179.999847 -179.999207 145.320068 179.999603 -179.999634 156.903168 0.000000 -0.000000 0.000000 10.000277 -0.000737 -32.772278 179.999847 -179.999237 147.227753 179.999619 -179.999634 158.173660 0.000000 -0.000000 0.000000 20.001020 -0.003100 -24.473152 179.999435 -179.995148 143.290314 179.997742 -179.997650 155.551331
-62.725986 123.632935 13.871872 87.342392 -178.503983 -178.686768 0.757484 -3.359844 0.626471 171.289703 148.613998 172.280685 4.818109 8.870840 -3.142565 0.966335 -33.113525 2.134420 173.478561 121.359863 166.271408 3.929625 -23.334723 4.724936 0.934220 6.380393 -1.976241 1.115588 6.282619 -3.218489 5.846844 5.045208 -3.596313 0.000024 0.279709 0.113523 0.000027 0.326325 0.117577 169.097900 179.750458 -179.977905 10.135256 1.129786 0.722184 18.663906 -16.725264 67.173874 24.979612 -2.348362 6.024882 176.528900 -178.735107 173.577286 45.054375 42.972256 7.943027 179.999985 179.999924 -170.665909 179.999985 179.999954 -173.783478 0.000000 -0.000000 0.000005 15.000053 0.000507 29.787895 179.999847 179.999619 -155.628082 179.999786 179.999802 -162.939667 0.000000 -0.000000 0.000005 0.000162 0.001176 35.176971 179.999451 179.998932 -144.823013 179.999298 179.999619 -156.572144 0.000000 -0.000000 0.000005 169.999893 -179.999329 -144.952499 0.000300 -0.000617 35.047482 0.000394 -0.000221 23.341625 0.000000 -0.000000 0.000005 160.000320 179.998154 -163.236481 179.999649 179.997192 -154.854721 179.998993 179.998413 -163.253235 176.275620 -177.808929 -179.303833 177.587112 -172.296997 104.135223 176.981873 179.333496 179.681381 8.713545 5.812719 3.030397 126.108185 127.970291 164.460327 179.999985 179.999924 173.321732 0.000001 0.000053 -4.447737 0.000000 -0.000002 0.000000 165.000137 -179.999680 152.893677 179.999985 -179.999725 157.822113 179.999908 -179.999832 164.475479 0.000000 -0.000002 0.000000 0.000158 -0.000475 -34.797302 179.999847 -179.999527 145.202698 179.999741 -179.999786 156.824997 0.000000 -0.000002 0.000000 10.000142 -0.000442 -32.889553 179.999863 -179.999557 147.110458 179.999771 -179.999802 158.095581 0.000000 -0.000002 0.000000 20.000214 -0.000879 -25.043625 179.999725 -179.998672 142.434525 179.999329 -179.999420 154.981415
